<svg version="1.2" xmlns="http://www.w3.org/2000/svg" viewBox="0 0 1031 275" width="1031" height="275">
	<title>UM6P Primary Lockup - Web-ai</title>
	<style>
		.s0 { fill: #d7492a } 
		.s1 { fill: #ffffff } 
	</style>
	<g id="Layer 1">
		<path id="&lt;Path&gt;" class="s0" d="m250.5 249.7h-232.3v-232.3h232.3z"/>
		<path id="&lt;Path&gt;" class="s1" d="m196.2 64.3v81.5q0 27.5-16.3 44.1-16.2 16.6-45.5 16.6-29.4 0-45.7-16.6-16.2-16.6-16.2-44.1v-81.5h33.4v80.9q0 13.9 7.3 22.4 7.2 8.6 21.2 8.6 13.9 0 21.1-8.6 7.3-8.5 7.3-22.4v-80.9z"/>
		<path id="&lt;Path&gt;" class="s0" d="m506.2 249.7h-232.2v-232.3h232.2z"/>
		<path id="&lt;Path&gt;" class="s0" d="m761.8 249.7h-232.3v-232.3h232.3z"/>
		<path id="&lt;Path&gt;" class="s0" d="m1017.3 249.7h-232.3v-232.3h232.3z"/>
		<path id="&lt;Path&gt;" class="s1" d="m464.1 63.8v139.4h-33.1v-81.6l-41 56-40.8-56v81.6h-33.1v-139.4h31.4l42.7 62 42.4-62z"/>
		<path id="&lt;Compound Path&gt;" fill-rule="evenodd" class="s1" d="m686.2 122.5q13.8 13.5 13.8 33.9 0 21.4-15.5 35.8-15.5 14.3-38.8 14.3-23.3 0-38.9-14.2-15.5-14.3-15.5-35.9 0-13.9 9.8-29.6l39.6-62.5h37.2l-27.2 43.1q21.7 1.5 35.5 15.1zm-24.9 48.8q5.8-5.8 5.8-14.9 0-8.8-5.8-14.7-5.9-5.9-15.7-5.9-9.5 0-15.5 5.9-6 5.8-6 14.7 0 9.1 5.9 14.9 5.9 5.8 15.7 5.8 9.7 0 15.6-5.8z"/>
		<path id="&lt;Compound Path&gt;" fill-rule="evenodd" class="s1" d="m945.8 79.2q13.9 15.4 13.9 34.8 0 19.7-14.1 35-14 15.2-37.3 15.2h-33v39h-32.7v-139.4h67.1q22.3 0 36.1 15.4zm-23.8 49.4q5.6-6.2 5.6-14.3 0-8.2-5.4-14.4-5.3-6.1-13.3-6.1h-33.6v40.9h32.3q8.7 0 14.4-6.1z"/>
	</g>
</svg>